# Blender v2.91.2 OBJ File: ''
# www.blender.org
mtllib prism.mtl
o Cube_Cube.001
v -1.000000 -1.000000 1.000000
v -1.000000 -1.000000 -1.000000
v 1.000000 -1.000000 1.000000
v 1.000000 -1.000000 -1.000000
v -1.000000 1.000000 0.000000
v 1.000000 1.000000 0.000000
v 1.000000 1.000000 0.000000
v -1.000000 1.000000 0.000000
vt 0.000000 0.000000
vt 0.000000 0.000000
vt 0.125000 0.750000
vt 0.375000 0.750000
vt 0.125000 0.500000
vt 0.375000 0.500000
vn 0.0000 0.4472 0.8944
vn 0.0000 -1.0000 0.0000
vn 1.0000 0.0000 0.0000
vn -1.0000 0.0000 0.0000
vn 0.0000 0.4472 -0.8944
usemtl None
s off
f 7/1/1 8/2/1 1/3/1 3/4/1
f 2/5/2 4/6/2 3/4/2 1/3/2
f 7/1/3 3/4/3 4/6/3
f 1/3/4 8/2/4 2/5/4
f 2/5/5 8/2/5 7/1/5 4/6/5
l 7 6
l 5 8
